<?xml version="1.0" encoding="UTF-8" ?>
<!DOCTYPE svg PUBLIC "-//W3C//DTD SVG 1.1//EN" "http://www.w3.org/Graphics/SVG/1.1/DTD/svg11.dtd">
<svg width="460pt" height="460pt" viewBox="0 0 460 460" version="1.1" xmlns="http://www.w3.org/2000/svg">
<path fill="#ffffff" d=" M 0.00 0.00 L 460.00 0.00 L 460.00 460.00 L 370.15 460.00 C 370.25 458.83 370.35 457.67 370.46 456.52 C 372.77 457.23 375.15 457.12 377.42 456.30 C 378.31 453.93 378.67 451.41 378.56 448.88 C 377.97 448.59 376.81 448.02 376.22 447.73 C 374.10 447.75 371.98 447.76 369.87 447.76 C 369.24 451.88 368.42 455.99 367.25 460.00 L 0.00 460.00 L 0.00 0.00 Z" />
<path fill="#010101" d=" M 147.14 47.14 C 154.83 31.32 176.88 25.16 191.88 34.06 C 203.71 39.55 217.33 37.19 229.23 33.22 C 245.35 27.77 263.60 29.38 278.59 37.39 C 289.30 43.08 299.22 51.40 304.44 62.56 C 308.18 71.88 308.13 82.35 312.46 91.47 C 314.48 95.74 318.70 98.12 322.43 100.67 C 328.75 104.93 334.67 110.62 336.92 118.11 C 337.85 122.21 341.03 125.21 343.95 128.02 C 353.38 136.22 365.02 141.21 376.57 145.63 C 378.86 146.49 381.02 147.64 383.13 148.88 C 385.30 147.11 387.54 145.43 390.01 144.12 C 392.46 142.96 393.95 140.48 396.42 139.36 C 398.40 138.26 400.72 138.22 402.94 138.24 C 411.96 138.28 420.98 138.25 430.00 138.25 C 435.50 138.06 440.73 142.47 441.27 148.00 C 442.42 154.17 437.49 160.48 431.25 160.93 C 420.92 161.09 410.58 160.97 400.25 161.00 C 398.62 162.09 397.06 163.30 395.84 164.84 C 400.34 174.79 401.24 186.96 396.09 196.85 C 393.39 202.33 388.67 206.48 383.43 209.46 C 384.37 215.60 388.16 222.51 384.28 228.33 C 381.00 232.76 375.08 232.32 370.20 232.30 C 367.30 246.11 363.92 259.98 357.87 272.79 C 350.14 289.24 335.60 301.73 319.31 309.30 C 323.00 315.12 324.42 322.43 322.39 329.10 C 320.09 337.04 313.24 343.61 305.06 345.15 C 297.35 347.00 288.86 344.27 283.44 338.55 C 278.86 334.06 277.07 327.55 276.85 321.30 C 256.06 323.82 234.82 323.83 214.16 320.15 C 214.55 326.14 212.98 332.36 209.09 337.02 C 203.62 344.20 193.62 347.33 184.97 344.89 C 175.34 342.38 167.87 333.02 167.97 323.00 C 167.64 317.06 170.20 311.46 173.82 306.90 C 158.31 298.65 144.82 285.61 138.29 269.08 C 135.90 269.55 133.48 269.95 131.05 270.05 C 125.00 275.94 116.98 280.17 108.32 279.49 C 105.32 281.82 101.54 282.46 97.84 281.79 C 94.63 285.27 92.02 289.30 88.51 292.49 C 84.86 295.33 80.17 293.37 76.15 292.67 C 69.14 291.37 60.44 292.61 56.33 299.13 C 52.06 304.94 53.34 313.67 58.86 318.22 C 65.26 324.38 78.27 323.58 81.87 314.78 C 84.25 310.23 84.99 305.11 86.08 300.16 C 87.45 295.81 94.58 296.11 95.68 300.51 C 98.89 310.38 98.91 322.52 91.74 330.71 C 81.50 342.11 62.82 343.23 50.44 334.72 C 38.46 327.25 32.86 311.45 36.96 298.02 C 40.03 287.65 48.42 278.90 58.85 275.84 C 65.66 273.65 72.94 273.75 79.94 274.79 C 80.83 273.22 83.34 272.01 82.59 269.92 C 81.39 266.57 83.10 262.84 81.30 259.68 C 77.42 251.23 80.13 241.62 84.60 233.99 C 82.62 229.02 82.24 222.99 85.51 218.47 C 89.00 212.77 95.95 210.52 102.32 210.41 C 104.49 205.98 106.56 201.50 108.40 196.91 C 99.19 191.22 93.47 180.72 93.58 169.91 C 93.61 152.79 101.81 137.24 109.43 122.39 C 117.86 105.65 128.84 88.84 145.63 79.53 C 142.85 68.99 142.06 57.13 147.14 47.14 Z" />
<path fill="#288dd5" d=" M 157.95 43.95 C 163.70 38.41 172.11 35.88 179.99 36.88 C 185.10 37.43 189.25 40.78 194.13 42.11 C 206.70 45.91 220.12 43.43 232.28 39.31 C 247.26 34.38 264.11 36.59 277.66 44.49 C 286.52 49.78 294.73 57.14 298.87 66.78 C 302.77 78.34 302.07 92.46 311.69 101.33 C 318.72 106.70 327.54 111.17 330.65 120.09 C 333.16 129.47 330.41 140.44 323.08 147.01 C 315.70 153.58 306.09 157.21 296.48 158.96 C 286.75 139.18 272.93 121.15 255.36 107.71 C 237.84 94.31 216.02 86.71 193.96 86.23 C 181.96 85.49 170.05 87.49 158.29 89.59 C 152.68 82.00 149.87 72.44 150.18 63.01 C 150.17 56.00 152.69 48.75 157.95 43.95 Z" />
<path fill="#fdfdfa" d=" M 232.96 54.79 C 239.12 52.01 246.53 55.39 250.12 60.73 C 251.75 60.55 253.39 60.38 255.03 60.21 C 257.93 64.11 254.16 67.84 252.23 71.13 C 249.21 75.47 247.09 80.45 243.59 84.43 C 242.33 84.56 241.06 84.51 239.80 84.52 C 239.26 83.18 238.72 81.85 238.20 80.52 C 234.18 79.53 230.14 77.84 227.59 74.42 C 222.38 68.22 225.69 57.77 232.96 54.79 Z" />
<path fill="#288dd9" d=" M 233.33 70.64 C 230.06 67.67 232.29 62.35 235.82 60.69 C 240.43 59.62 245.18 63.44 245.74 67.99 C 245.33 70.24 243.64 71.98 242.54 73.91 C 239.22 73.92 235.53 73.44 233.33 70.64 Z" />
<path fill="#fdfdfb" d=" M 257.44 65.31 C 259.13 62.24 264.30 64.75 263.16 68.00 C 261.91 72.12 260.40 76.20 260.04 80.54 C 263.38 78.80 266.33 76.43 269.63 74.64 C 271.43 73.44 274.96 74.25 274.65 76.89 C 274.45 81.87 273.41 86.80 273.46 91.80 C 277.95 89.67 281.94 86.69 286.20 84.16 C 287.51 83.21 289.06 84.07 290.42 84.41 C 290.65 85.06 291.11 86.37 291.34 87.02 C 291.09 87.61 290.61 88.78 290.37 89.36 C 284.85 93.03 279.41 97.17 272.98 99.11 C 271.14 99.88 269.40 98.75 267.71 98.17 C 266.40 93.61 266.75 88.85 266.86 84.17 C 263.68 86.26 260.67 88.92 256.93 89.90 C 254.72 90.20 252.91 88.27 253.11 86.10 C 252.85 78.99 254.37 71.71 257.44 65.31 Z" />
<path fill="#fea500" d=" M 136.62 94.55 C 140.18 91.30 143.81 87.92 148.28 85.96 C 150.78 89.72 152.23 95.47 156.98 96.86 C 170.44 93.98 184.25 91.77 198.06 93.08 C 217.56 94.35 236.39 101.81 251.95 113.54 C 224.67 113.45 197.33 116.76 171.11 124.47 C 167.75 120.66 163.09 118.05 157.96 117.76 C 146.44 116.97 135.19 121.06 125.18 126.43 C 117.36 130.50 111.17 137.07 106.35 144.35 C 114.40 126.69 122.74 108.50 136.62 94.55 Z" />
<path fill="#fea500" d=" M 255.72 123.60 C 258.11 123.72 260.50 123.40 262.89 123.35 C 274.96 134.99 284.22 149.27 291.77 164.17 C 292.40 165.80 294.32 166.58 295.96 166.08 C 308.32 163.76 320.95 159.19 329.75 149.84 C 334.38 144.96 336.86 138.52 337.90 131.95 C 348.32 140.81 360.68 146.98 373.47 151.63 C 377.80 153.10 381.60 155.93 384.57 159.39 C 384.59 159.41 384.63 159.46 384.65 159.48 C 391.06 167.24 394.38 177.88 392.26 187.85 C 391.02 194.29 386.65 199.92 380.92 203.03 C 375.14 206.17 368.80 208.13 362.43 209.67 C 344.06 213.74 324.48 212.64 306.80 206.12 C 305.48 205.67 304.15 205.29 302.81 204.92 C 300.45 201.07 298.78 196.71 295.59 193.44 C 293.96 191.62 290.16 192.55 290.12 195.17 C 289.64 196.80 290.87 198.10 291.71 199.34 C 295.46 204.23 297.33 210.24 298.92 216.12 C 302.53 232.97 301.62 251.03 295.25 267.13 C 289.94 280.68 278.89 292.07 265.10 296.97 C 262.29 298.10 259.22 297.96 256.26 297.82 C 255.86 295.69 254.79 293.22 252.23 293.30 C 249.39 294.16 247.07 296.26 244.12 296.84 C 242.47 297.26 239.98 297.76 239.18 295.75 C 239.19 293.05 239.64 290.38 239.58 287.68 C 237.14 287.25 234.65 287.22 232.23 286.71 C 230.35 284.85 230.93 281.76 231.50 279.43 C 233.09 273.49 237.03 268.53 241.49 264.45 C 253.29 253.33 261.89 238.37 263.65 222.09 C 264.49 212.86 264.23 203.35 261.36 194.47 C 254.87 194.28 247.86 196.71 241.83 193.39 C 239.11 192.82 238.29 196.04 237.46 197.92 C 235.00 204.10 228.41 207.41 222.08 208.00 C 213.47 208.65 204.40 208.31 196.54 204.35 C 189.85 201.42 183.91 197.13 177.88 193.07 C 174.61 190.68 170.45 192.24 166.94 193.18 C 155.99 196.43 144.45 200.48 132.92 197.74 C 124.93 196.27 116.62 192.34 113.00 184.62 C 110.57 183.67 108.33 184.74 107.16 187.01 C 103.24 183.63 101.56 178.53 100.41 173.66 C 101.85 172.93 103.28 172.18 104.69 171.42 C 109.55 178.53 118.97 180.57 127.02 179.07 C 139.90 176.73 151.95 170.42 161.60 161.63 C 169.59 154.54 176.48 144.71 175.57 133.52 C 201.57 126.12 228.70 122.82 255.72 123.60 Z" />
<path fill="#bc012a" d=" M 406.00 145.18 C 414.68 144.76 423.37 145.20 432.06 145.04 C 434.05 146.70 434.93 149.02 434.64 151.60 C 433.22 152.64 432.05 154.50 430.07 154.26 C 422.78 154.33 415.50 154.22 408.21 154.27 C 408.09 151.11 407.38 148.02 406.00 145.18 Z" />
<path fill="#fdfefd" d=" M 388.34 153.21 C 391.02 151.26 393.79 149.23 397.07 148.44 C 399.78 147.82 402.74 151.35 400.67 153.63 C 397.84 155.14 394.75 156.24 392.31 158.41 C 391.00 156.66 389.65 154.94 388.34 153.21 Z" />
<path fill="#010101" d=" M 242.13 155.99 C 248.61 154.77 254.40 161.04 255.35 167.07 C 256.28 172.15 251.22 177.32 246.09 175.67 C 240.68 173.59 237.67 167.54 237.68 161.98 C 237.49 159.23 239.36 156.48 242.13 155.99 Z" />
<path fill="#787762" d=" M 384.57 159.39 C 384.59 159.41 384.63 159.46 384.65 159.48 C 384.63 159.46 384.59 159.41 384.57 159.39 Z" />
<path fill="#f9a500" d=" M 114.22 200.23 C 115.79 199.88 117.36 199.53 118.92 199.09 C 114.66 201.76 115.25 207.62 113.89 211.92 C 112.53 211.75 111.18 211.58 109.83 211.40 C 110.90 207.53 112.88 204.01 114.22 200.23 Z" />
<path fill="#bb002b" d=" M 149.80 204.73 C 158.29 203.40 166.30 198.94 175.07 200.04 C 176.65 200.07 177.92 201.08 179.16 201.93 C 183.99 205.47 189.15 208.62 194.72 210.84 C 194.72 215.75 194.23 220.65 193.50 225.50 C 178.23 225.34 162.95 225.74 147.68 225.29 C 149.07 218.55 149.19 211.58 149.80 204.73 Z" />
<path fill="#bb002b" d=" M 243.61 201.56 C 247.82 201.73 252.03 201.74 256.24 201.71 C 257.93 209.54 257.73 217.64 256.29 225.49 C 242.98 225.36 229.66 225.72 216.35 225.30 C 217.59 222.07 218.33 218.69 218.64 215.25 C 224.35 214.22 230.57 214.00 235.41 210.37 C 239.11 208.44 241.25 204.82 243.61 201.56 Z" />
<path fill="#be002b" d=" M 122.23 205.42 C 122.38 203.61 123.91 202.62 125.38 201.86 C 126.75 209.63 125.86 217.61 126.46 225.47 C 124.38 225.47 122.30 225.46 120.22 225.45 C 119.76 224.90 118.84 223.81 118.38 223.26 C 119.40 217.26 120.76 211.32 122.23 205.42 Z" />
<path fill="#fefefe" d=" M 132.72 204.58 C 136.24 205.12 139.80 205.34 143.37 205.31 C 140.67 222.14 141.80 239.31 139.33 256.13 C 133.85 239.56 132.40 221.94 132.72 204.58 Z" />
<path fill="#bb012b" d=" M 305.20 213.01 C 328.45 220.46 354.16 220.88 377.16 212.28 C 378.21 216.15 379.12 220.06 379.54 224.06 C 378.98 224.41 377.86 225.12 377.30 225.48 C 354.03 225.52 330.76 225.43 307.49 225.52 C 306.65 221.36 305.83 217.20 305.20 213.01 Z" />
<path fill="#fefefe" d=" M 201.54 213.42 C 205.01 214.15 208.52 214.63 212.06 214.80 C 208.80 232.08 203.56 249.32 194.32 264.38 C 195.88 247.29 200.43 230.58 201.54 213.42 Z" />
<path fill="#c5c5c5" d=" M 94.87 218.80 C 100.22 216.22 106.47 217.00 111.97 218.65 C 111.57 221.89 111.63 225.25 113.25 228.17 C 105.87 225.06 96.69 222.24 89.34 226.89 C 90.02 223.59 91.70 220.32 94.87 218.80 Z" />
<path fill="#313131" d=" M 95.34 231.31 C 104.66 230.35 113.28 235.18 120.31 240.80 C 125.44 245.23 130.51 250.78 131.63 257.67 C 128.21 264.78 121.43 270.49 113.77 272.53 C 114.32 263.18 106.92 254.79 98.02 252.88 C 94.03 252.05 90.21 253.93 86.39 254.79 C 86.19 251.54 85.88 248.19 86.94 245.04 C 88.32 239.73 92.03 235.53 95.34 231.31 Z" />
<path fill="#c9c9c9" d=" M 119.87 232.19 C 122.38 232.26 124.89 232.27 127.40 232.27 C 127.65 234.41 127.93 236.55 128.22 238.70 C 125.60 236.34 122.94 233.97 119.87 232.19 Z" />
<path fill="#bb002b" d=" M 147.71 232.23 C 149.58 232.20 151.44 232.18 153.31 232.17 C 154.47 237.57 155.99 242.89 157.38 248.23 C 165.88 248.74 174.41 248.30 182.93 248.53 C 184.88 248.43 186.99 248.75 188.79 247.79 C 188.95 247.47 189.27 246.81 189.43 246.49 C 188.62 241.67 186.85 237.07 185.93 232.26 C 188.03 232.24 190.13 232.22 192.24 232.20 C 191.30 243.13 188.12 253.73 187.54 264.69 C 179.96 264.77 172.37 264.66 164.79 264.76 C 167.33 270.62 172.07 275.10 177.02 278.97 C 184.20 284.40 192.46 288.32 201.05 290.95 C 199.97 284.93 198.21 279.08 196.69 273.17 C 194.85 272.96 192.93 273.09 191.18 272.41 C 192.82 272.12 194.49 272.04 196.16 271.92 C 202.73 265.56 206.37 256.86 209.35 248.37 L 209.79 248.38 C 219.34 248.53 228.90 248.48 238.46 248.42 C 238.25 243.01 237.95 237.61 237.70 232.21 C 243.32 232.27 248.94 232.17 254.57 232.21 C 252.03 239.74 248.29 246.95 243.07 252.98 C 239.86 256.86 236.08 260.20 232.65 263.86 C 232.39 264.33 231.89 265.27 231.63 265.74 L 231.18 265.61 C 225.19 263.71 218.73 265.17 212.54 264.65 C 214.23 274.85 215.88 285.05 217.76 295.22 C 222.64 295.80 227.53 296.40 232.43 296.85 C 233.38 300.23 236.05 302.84 239.47 303.70 C 243.08 304.34 246.55 302.87 250.06 302.30 C 253.06 302.98 255.77 304.94 258.98 304.69 C 268.56 304.52 277.09 299.18 284.39 293.44 C 292.20 287.15 297.62 278.60 301.90 269.66 C 300.39 276.85 298.31 283.89 296.38 290.97 C 310.99 286.69 325.61 278.40 333.31 264.80 C 323.40 264.59 313.50 264.82 303.60 264.66 C 303.17 265.82 302.73 266.97 302.34 268.14 C 304.57 260.79 306.27 253.31 307.62 245.75 L 307.78 246.00 C 307.85 246.60 308.01 247.80 308.08 248.40 C 318.80 248.50 329.53 248.52 340.26 248.39 C 341.82 243.04 343.37 237.68 344.41 232.20 C 350.14 232.25 355.87 232.33 361.60 232.08 C 359.28 245.11 355.55 257.93 350.04 269.98 C 342.29 284.91 328.79 296.67 313.12 302.69 C 310.35 302.14 307.87 300.55 305.07 300.03 C 295.01 297.54 283.76 302.94 279.49 312.39 C 257.09 315.99 234.09 315.39 211.78 311.46 C 208.60 307.19 204.86 303.04 199.77 301.10 C 193.77 298.56 186.97 299.23 180.97 301.40 C 171.78 296.16 162.32 290.59 155.84 282.02 C 150.98 276.47 147.35 269.90 144.78 263.02 C 147.18 252.94 147.48 242.55 147.71 232.23 Z" />
<path fill="#fea500" d=" M 153.31 232.17 C 164.18 232.30 175.05 232.15 185.93 232.26 C 186.85 237.07 188.62 241.67 189.43 246.49 C 189.27 246.81 188.95 247.47 188.79 247.79 C 186.99 248.75 184.88 248.43 182.93 248.53 C 174.41 248.30 165.88 248.74 157.38 248.23 C 155.99 242.89 154.47 237.57 153.31 232.17 Z" />
<path fill="#fea500" d=" M 214.99 232.20 C 222.56 232.24 230.13 232.22 237.70 232.21 C 237.95 237.61 238.25 243.01 238.46 248.42 C 228.90 248.48 219.34 248.53 209.79 248.38 C 211.44 242.96 213.48 237.67 214.99 232.20 Z" />
<path fill="#be002b" d=" M 307.83 232.11 C 309.22 232.15 310.62 232.19 312.02 232.23 C 310.83 236.57 310.16 241.11 308.13 245.18 C 306.79 240.95 308.05 236.46 307.83 232.11 Z" />
<path fill="#fea500" d=" M 312.02 232.23 C 322.82 232.19 333.62 232.27 344.41 232.20 C 343.37 237.68 341.82 243.04 340.26 248.39 C 329.53 248.52 318.80 248.50 308.08 248.40 C 308.01 247.80 307.85 246.60 307.78 246.00 L 308.13 245.18 C 310.16 241.11 310.83 236.57 312.02 232.23 Z" />
<path fill="#c6c6c6" d=" M 88.25 264.15 C 89.60 261.47 91.79 258.95 95.05 258.92 C 100.68 259.21 105.71 263.64 107.19 268.99 C 107.83 271.90 104.98 273.74 103.25 275.57 C 103.45 272.06 103.22 268.08 100.37 265.61 C 97.27 262.23 92.12 262.04 88.25 264.15 Z" />
<path fill="#fda501" d=" M 164.79 264.76 C 172.37 264.66 179.96 264.77 187.54 264.69 C 187.96 267.47 187.91 271.32 191.18 272.41 C 192.93 273.09 194.85 272.96 196.69 273.17 C 198.21 279.08 199.97 284.93 201.05 290.95 C 192.46 288.32 184.20 284.40 177.02 278.97 C 172.07 275.10 167.33 270.62 164.79 264.76 Z" />
<path fill="#fea500" d=" M 212.54 264.65 C 218.73 265.17 225.19 263.71 231.18 265.61 L 230.94 266.36 C 226.46 271.81 223.30 279.15 224.63 286.30 C 225.26 290.18 228.52 292.87 232.16 293.85 C 232.23 294.60 232.37 296.10 232.43 296.85 C 227.53 296.40 222.64 295.80 217.76 295.22 C 215.88 285.05 214.23 274.85 212.54 264.65 Z" />
<path fill="#fda500" d=" M 303.60 264.66 C 313.50 264.82 323.40 264.59 333.31 264.80 C 325.61 278.40 310.99 286.69 296.38 290.97 C 298.31 283.89 300.39 276.85 301.90 269.66 C 302.01 269.28 302.23 268.52 302.34 268.14 C 302.73 266.97 303.17 265.82 303.60 264.66 Z" />
<path fill="#fdd603" d=" M 92.04 267.92 C 95.35 267.34 98.35 269.57 98.26 273.04 C 95.04 277.52 91.25 281.55 87.94 285.97 C 86.76 287.49 85.20 289.47 83.00 288.90 C 76.43 287.48 69.46 286.33 62.90 288.40 C 56.19 290.40 50.81 296.18 49.27 303.01 C 46.94 312.05 52.42 322.08 61.02 325.48 C 67.76 328.59 76.15 327.49 82.01 323.01 C 87.80 317.58 89.17 309.30 90.92 301.92 C 93.11 309.13 93.79 317.36 90.17 324.23 C 86.05 331.65 77.21 335.37 68.99 335.30 C 56.12 335.54 43.64 325.89 41.24 313.14 C 38.71 301.96 43.93 289.72 53.62 283.68 C 61.98 278.25 72.51 278.44 81.96 280.20 C 85.30 276.09 88.61 271.95 92.04 267.92 Z" />
<path fill="#838383" d=" M 187.40 306.55 C 196.36 304.26 206.06 310.92 207.29 320.02 C 209.01 329.19 201.43 338.54 192.16 338.98 C 184.20 339.75 176.60 333.73 175.01 326.01 C 172.90 317.58 178.95 308.27 187.40 306.55 Z" />
<path fill="#838383" d=" M 296.43 306.53 C 305.79 304.14 315.93 311.43 316.51 321.09 C 317.66 330.07 310.02 338.68 301.06 338.98 C 291.44 339.86 282.60 330.55 283.84 321.00 C 284.40 314.10 289.76 308.15 296.43 306.53 Z" />
<path fill="#d0d0d0" d=" M 187.58 316.66 C 191.88 313.93 198.53 317.72 197.78 322.93 C 197.76 327.82 191.74 331.02 187.63 328.40 C 183.14 326.06 183.39 319.19 187.58 316.66 Z" />
<path fill="#d1d1d1" d=" M 298.12 316.15 C 302.78 314.54 308.20 319.11 306.75 324.01 C 306.03 329.08 298.99 330.97 295.48 327.52 C 291.91 324.33 293.26 317.23 298.12 316.15 Z" />
<path fill="#9c5e91" d=" M 18.87 360.99 C 19.15 354.32 25.27 348.98 31.88 349.27 C 68.95 349.22 106.02 349.22 143.09 349.27 C 149.83 349.26 155.58 355.29 155.49 361.98 C 155.49 375.98 155.51 389.98 155.48 403.98 C 155.73 410.75 149.98 417.29 143.06 417.07 C 129.64 417.12 116.23 416.97 102.82 417.13 C 104.53 421.50 106.47 425.78 108.05 430.21 C 99.81 426.31 92.22 421.13 83.98 417.25 C 66.33 416.80 48.62 417.22 30.95 417.05 C 26.64 417.04 22.45 414.47 20.46 410.65 C 18.55 407.48 18.80 403.65 18.75 400.10 C 18.85 387.06 18.65 374.02 18.87 360.99 Z" />
<path fill="#fefefd" d=" M 73.68 358.69 C 75.71 354.69 82.25 356.92 82.32 361.00 C 81.86 363.86 80.32 366.38 79.51 369.14 C 76.80 378.20 75.59 387.62 74.74 397.02 C 74.28 401.50 75.49 406.28 73.38 410.47 C 71.42 410.47 69.06 411.17 67.55 409.53 C 60.64 403.07 57.19 393.92 54.29 385.13 C 49.41 393.65 46.56 403.60 39.42 410.63 C 38.54 410.58 36.78 410.48 35.90 410.44 C 33.26 406.39 32.20 401.63 31.00 397.02 C 28.37 386.08 26.38 374.99 24.68 363.88 C 23.93 358.75 32.77 356.88 33.71 362.09 C 35.81 372.13 36.81 382.41 39.67 392.29 C 44.01 384.94 47.69 377.22 51.77 369.74 C 52.86 367.61 55.17 365.16 57.78 366.36 C 59.82 367.00 60.37 369.30 60.76 371.16 C 61.90 377.40 63.51 383.59 65.90 389.48 C 67.58 379.06 68.40 368.06 73.68 358.69 Z" />
<path fill="#fdfefd" d=" M 94.28 363.43 C 98.43 362.47 103.30 362.42 106.80 365.19 C 111.08 368.39 113.32 373.84 113.24 379.12 C 113.75 386.95 111.15 395.15 105.53 400.73 C 99.82 407.00 87.93 405.66 84.01 398.03 C 79.99 390.89 80.68 382.02 83.76 374.66 C 85.89 369.93 89.21 365.24 94.28 363.43 Z" />
<path fill="#fcfefc" d=" M 130.13 363.19 C 134.52 362.26 139.50 362.97 142.91 366.07 C 145.59 368.67 147.47 372.15 147.92 375.88 C 149.44 384.86 146.83 394.78 140.15 401.16 C 134.57 406.53 124.14 405.72 119.79 399.19 C 115.48 393.07 115.66 384.89 117.58 377.95 C 119.54 371.71 123.49 365.14 130.13 363.19 Z" />
<path fill="#010101" d=" M 171.52 367.35 C 176.65 363.39 183.57 362.90 189.74 364.07 C 189.82 367.17 189.82 370.27 189.77 373.37 C 185.48 372.02 179.84 371.93 177.10 376.13 C 173.99 380.75 174.12 387.88 178.03 392.01 C 181.18 394.94 185.88 394.81 189.75 393.59 C 189.80 396.67 189.79 399.76 189.71 402.85 C 183.73 404.43 177.07 403.61 171.95 400.05 C 161.47 392.74 161.09 374.87 171.52 367.35 Z" />
<path fill="#010101" d=" M 201.50 364.74 C 206.75 362.65 212.91 363.10 217.78 365.96 C 221.90 368.54 224.17 373.27 224.89 377.95 C 225.38 384.06 225.66 390.66 222.41 396.14 C 217.11 406.18 200.20 406.20 194.85 396.22 C 191.78 391.02 191.76 384.70 192.21 378.87 C 192.56 373.00 195.95 367.06 201.50 364.74 Z" />
<path fill="#010101" d=" M 381.00 366.69 C 386.03 363.31 392.48 362.92 398.27 364.17 C 398.30 367.21 398.29 370.26 398.29 373.30 C 394.40 372.24 390.16 372.10 386.75 374.55 C 382.32 379.42 382.04 388.37 387.40 392.66 C 390.55 395.10 394.72 394.56 398.32 393.66 C 398.28 396.66 398.27 399.65 398.37 402.66 C 392.05 404.71 384.75 403.48 379.52 399.37 C 369.70 391.42 369.96 373.47 381.00 366.69 Z" />
<path fill="#010101" d=" M 230.95 364.62 C 235.29 364.63 239.64 364.61 243.99 364.63 C 245.38 371.64 247.03 378.61 248.23 385.67 C 249.50 378.59 251.09 371.55 252.94 364.60 C 257.33 364.63 261.72 364.64 266.11 364.60 C 267.93 377.25 269.49 389.94 271.29 402.60 C 267.93 402.60 264.57 402.58 261.22 402.61 C 259.86 393.99 259.59 385.27 258.30 376.65 C 256.32 385.32 253.99 393.90 252.11 402.59 C 249.80 402.58 247.49 402.68 245.19 402.50 C 242.67 393.93 240.71 385.13 238.46 376.46 C 237.51 385.16 236.81 393.90 235.73 402.60 C 232.54 402.60 229.35 402.60 226.16 402.56 C 227.65 389.90 229.32 377.27 230.95 364.62 Z" />
<path fill="#010101" d=" M 277.41 364.60 C 281.75 364.64 286.09 364.63 290.43 364.61 C 291.99 371.38 293.33 378.21 294.66 385.04 L 293.64 385.55 C 294.18 385.52 294.97 385.66 294.98 384.88 C 296.09 378.05 297.73 371.34 299.30 364.61 C 303.73 364.64 308.17 364.64 312.61 364.59 C 314.19 377.26 316.15 389.88 317.65 402.55 C 314.25 402.62 310.85 402.60 307.45 402.57 C 306.70 393.93 305.76 385.30 304.78 376.67 C 302.73 385.31 300.58 393.92 298.51 402.55 C 296.22 402.58 293.94 402.60 291.66 402.62 C 289.25 394.11 287.35 385.47 285.03 376.93 C 283.90 385.44 283.11 393.98 282.44 402.53 C 279.11 402.63 275.79 402.60 272.47 402.62 C 274.39 389.98 275.75 377.27 277.41 364.60 Z" />
<path fill="#010101" d=" M 320.61 364.68 C 327.53 364.66 334.44 364.68 341.35 364.69 C 341.34 367.37 341.34 370.05 341.38 372.73 C 337.87 372.73 334.35 372.73 330.84 372.72 C 330.87 375.07 330.86 377.42 330.82 379.78 C 333.84 379.77 336.86 379.79 339.88 379.72 C 340.03 382.35 340.05 384.98 339.96 387.62 C 336.91 387.59 333.87 387.56 330.83 387.59 C 330.86 389.91 330.86 392.24 330.86 394.58 C 334.37 394.61 337.89 394.60 341.41 394.58 C 341.41 397.25 341.40 399.93 341.41 402.62 C 334.48 402.70 327.56 402.64 320.63 402.67 C 320.65 390.01 320.68 377.34 320.61 364.68 Z" />
<path fill="#010101" d=" M 344.40 402.60 C 344.47 389.94 344.42 377.28 344.43 364.63 C 352.47 365.20 361.89 362.72 368.66 368.34 C 374.16 372.92 372.53 382.73 365.96 385.51 C 368.43 391.28 371.48 396.78 373.96 402.55 C 370.36 402.62 366.77 402.59 363.18 402.57 C 360.35 396.74 357.59 390.88 354.73 385.08 C 354.58 390.92 354.74 396.76 354.64 402.60 C 351.22 402.59 347.81 402.60 344.40 402.60 Z" />
<path fill="#010101" d=" M 401.29 402.60 C 401.25 389.93 401.22 377.26 401.30 364.60 C 408.17 364.64 415.05 364.63 421.93 364.58 C 421.95 367.26 421.98 369.94 422.06 372.62 C 418.52 372.74 414.98 372.73 411.44 372.64 C 411.44 374.99 411.44 377.34 411.45 379.69 C 414.48 379.69 417.52 379.69 420.56 379.69 C 420.58 382.29 420.58 384.90 420.57 387.51 C 417.53 387.52 414.49 387.52 411.45 387.50 C 411.43 389.85 411.43 392.20 411.45 394.56 C 414.95 394.57 418.44 394.54 421.94 394.51 C 422.00 397.21 422.00 399.91 421.96 402.61 C 415.07 402.59 408.18 402.57 401.29 402.60 Z" />
<path fill="#9b5d90" d=" M 97.31 372.44 C 98.82 371.62 100.67 371.99 101.65 373.42 C 104.92 377.78 104.62 383.89 102.52 388.70 C 101.27 391.96 98.57 395.07 94.90 395.36 C 90.69 392.99 90.29 387.29 90.93 383.02 C 91.72 378.95 93.49 374.52 97.31 372.44 Z" />
<path fill="#9b5e91" d=" M 132.33 372.43 C 135.56 370.78 137.88 374.33 138.55 377.03 C 139.35 381.59 139.11 386.63 136.56 390.64 C 135.27 393.12 132.81 395.23 129.89 395.20 C 127.60 394.63 126.78 392.07 126.13 390.09 C 124.66 383.77 126.61 376.01 132.33 372.43 Z" />
<path fill="#fefefe" d=" M 204.64 373.65 C 206.87 371.98 210.30 371.37 212.11 373.97 C 215.36 378.70 214.44 385.08 213.61 390.43 C 213.02 395.25 205.72 396.72 203.88 391.98 C 202.49 386.01 202.27 379.42 204.64 373.65 Z" />
<path fill="#fdfdfd" d=" M 354.60 371.62 C 356.83 372.21 360.38 372.06 361.07 374.88 C 362.01 376.68 360.92 378.48 360.18 380.11 C 358.32 380.39 356.47 380.69 354.62 380.98 C 354.61 377.85 354.58 374.73 354.60 371.62 Z" />
<path fill="#0e2945" d=" M 270.89 407.62 C 276.56 406.72 282.34 407.37 288.06 407.25 C 291.28 407.09 294.76 408.74 296.05 411.83 C 298.03 417.44 295.97 424.26 290.53 427.12 C 290.62 426.68 290.79 425.79 290.87 425.35 C 293.17 421.69 296.45 417.20 294.27 412.75 C 291.84 408.89 286.95 408.98 282.94 409.10 C 279.39 409.08 275.69 408.41 272.35 409.98 C 271.50 416.14 270.08 422.22 267.81 428.02 C 266.37 431.52 266.34 435.45 267.71 438.98 C 268.62 438.54 269.54 438.10 270.46 437.67 C 271.44 434.33 271.16 429.58 274.74 427.81 C 279.14 426.59 283.81 427.11 288.30 427.48 L 289.31 428.03 C 284.56 429.46 279.58 429.58 274.66 429.45 C 273.66 433.07 272.87 436.77 271.46 440.27 C 269.04 440.21 266.62 440.20 264.20 440.23 C 264.36 433.65 266.80 427.42 268.12 421.02 C 268.72 418.02 269.38 415.03 270.20 412.09 C 270.43 410.59 270.67 409.11 270.89 407.62 Z" />
<path fill="#082d58" d=" M 357.71 407.46 C 364.75 407.42 371.85 406.94 378.85 407.86 C 372.15 408.78 365.38 408.20 358.65 408.50 C 358.29 410.69 357.93 412.89 357.52 415.08 C 357.44 414.22 357.29 412.50 357.21 411.64 C 357.29 410.23 357.52 408.85 357.71 407.46 Z" />
<path fill="#32566f" d=" M 416.13 407.42 C 418.66 407.23 421.20 407.39 423.74 407.51 C 421.46 418.35 418.63 428.97 416.11 439.77 C 415.93 439.25 415.57 438.23 415.39 437.72 C 415.25 436.71 415.14 435.71 415.29 434.71 C 416.90 427.07 419.96 419.74 420.90 411.97 C 421.12 410.52 420.61 407.10 418.50 408.54 C 416.32 411.84 415.04 415.65 413.12 419.11 C 413.84 415.17 414.25 411.01 416.13 407.42 Z" />
<path fill="#8f969a" d=" M 425.63 407.03 C 427.50 406.21 427.70 410.49 426.10 410.84 C 424.91 410.08 424.90 408.11 425.63 407.03 Z" />
<path fill="#838383" d=" M 427.33 407.15 C 428.82 407.08 430.03 407.63 430.71 409.03 C 430.88 408.46 431.23 407.32 431.41 406.74 C 431.81 407.07 432.59 407.73 432.99 408.06 C 432.85 409.18 432.71 410.30 432.59 411.43 C 431.21 411.40 429.82 411.38 428.45 411.37 C 428.07 409.96 427.70 408.55 427.33 407.15 Z" />
<path fill="#07305c" d=" M 272.35 409.98 C 275.69 408.41 279.39 409.08 282.94 409.10 C 286.95 408.98 291.84 408.89 294.27 412.75 C 296.45 417.20 293.17 421.69 290.87 425.35 C 290.79 425.79 290.62 426.68 290.53 427.12 L 290.44 427.64 C 289.90 427.60 288.84 427.52 288.30 427.48 C 283.81 427.11 279.14 426.59 274.74 427.81 C 271.16 429.58 271.44 434.33 270.46 437.67 C 269.54 438.10 268.62 438.54 267.71 438.98 C 266.34 435.45 266.37 431.52 267.81 428.02 C 270.08 422.22 271.50 416.14 272.35 409.98 Z" />
<path fill="#2b5f8e" d=" M 358.65 408.50 C 365.38 408.20 372.15 408.78 378.85 407.86 C 379.98 408.88 381.12 409.89 382.27 410.90 C 384.53 416.18 383.14 423.00 378.33 426.38 C 373.40 429.90 367.04 429.51 361.30 429.40 C 360.06 432.93 359.24 436.57 358.27 440.18 C 355.69 440.18 353.10 440.21 350.52 440.24 C 350.75 434.32 352.99 428.73 354.03 422.94 C 355.08 419.17 355.36 415.14 357.21 411.64 C 357.29 412.50 357.44 414.22 357.52 415.08 C 357.93 412.89 358.29 410.69 358.65 408.50 Z" />
<path fill="#296192" d=" M 418.50 408.54 C 420.61 407.10 421.12 410.52 420.90 411.97 C 419.96 419.74 416.90 427.07 415.29 434.71 C 415.14 435.71 415.25 436.71 415.39 437.72 C 413.67 438.16 411.94 438.56 410.21 438.97 C 410.73 434.29 411.89 429.74 412.90 425.16 C 412.31 426.15 411.73 427.14 411.15 428.14 C 411.47 425.07 411.88 421.95 413.12 419.11 C 415.04 415.65 416.32 411.84 418.50 408.54 Z" />
<path fill="#f8fcf6" d=" M 278.66 413.32 C 281.66 413.31 285.43 412.57 287.48 415.38 C 288.04 416.92 287.60 418.62 287.62 420.24 C 284.42 422.72 280.24 424.09 276.29 422.56 C 276.85 419.43 277.61 416.33 278.66 413.32 Z" />
<path fill="#f7fbf6" d=" M 364.79 413.46 C 367.28 413.16 369.79 413.25 372.28 413.56 C 373.25 415.21 375.37 416.87 374.28 419.00 C 372.46 423.19 366.93 423.53 363.03 422.76 C 363.37 419.62 364.06 416.53 364.79 413.46 Z" />
<path fill="#061f38" d=" M 324.33 414.66 C 326.88 414.70 329.51 414.28 332.02 414.96 C 333.18 419.69 333.54 424.58 334.37 429.38 C 333.94 429.14 333.10 428.68 332.68 428.45 C 331.92 424.43 331.28 420.39 330.11 416.47 C 328.78 416.43 327.45 416.40 326.13 416.38 C 326.52 421.51 328.31 426.67 326.99 431.81 C 326.01 426.11 324.25 420.49 324.33 414.66 Z" />
<path fill="#061f38" d=" M 345.49 414.75 C 347.94 414.48 350.41 414.59 352.87 414.57 C 352.76 415.33 352.65 416.11 352.54 416.89 C 350.85 416.78 349.05 416.09 347.40 416.70 C 343.95 418.61 343.08 423.44 339.12 424.65 C 341.08 421.26 342.95 417.74 345.49 414.75 Z" />
<path fill="#295e8b" d=" M 386.59 415.69 C 391.31 414.49 396.28 414.07 401.10 414.95 C 404.71 415.69 408.47 418.99 407.43 423.02 C 406.52 428.03 405.32 432.99 404.29 437.99 C 403.72 441.62 399.22 439.80 396.73 440.26 C 396.68 439.53 396.59 438.06 396.54 437.33 C 393.70 439.27 390.61 441.29 386.98 440.68 C 383.12 441.32 379.54 437.79 380.35 433.90 C 380.00 430.54 382.51 428.16 384.84 426.20 L 385.27 426.48 C 386.76 427.46 388.25 428.45 389.75 429.44 C 388.18 431.06 388.48 433.33 388.49 435.40 C 391.12 435.40 394.16 436.25 396.46 434.54 C 398.19 433.02 398.27 430.52 398.84 428.45 C 398.13 428.46 396.72 428.49 396.01 428.50 C 396.64 427.67 397.28 426.84 397.92 426.01 C 394.59 425.75 391.26 425.47 387.92 425.55 C 391.82 425.10 395.75 424.88 399.66 424.54 C 399.59 423.20 399.52 421.87 399.44 420.55 C 394.77 419.96 390.03 420.29 385.52 421.63 C 385.67 419.61 386.01 417.62 386.59 415.69 Z" />
<path fill="#082d58" d=" M 300.46 415.57 C 305.93 414.73 311.94 413.43 317.19 415.85 C 319.98 416.99 321.98 420.11 321.14 423.15 C 320.22 428.12 319.04 433.05 318.07 438.02 C 317.25 441.52 312.94 439.84 310.41 440.29 C 310.41 439.54 310.41 438.02 310.41 437.26 C 306.80 440.44 301.64 441.76 297.07 440.02 C 292.53 437.54 293.32 429.94 297.43 427.34 C 302.10 424.02 308.12 425.79 313.39 424.58 C 313.39 423.28 313.38 421.99 313.37 420.71 C 308.72 419.80 303.94 420.26 299.41 421.58 C 299.53 419.53 299.80 417.51 300.46 415.57 Z" />
<path fill="#06325f" d=" M 326.13 416.38 C 327.45 416.40 328.78 416.43 330.11 416.47 C 331.28 420.39 331.92 424.43 332.68 428.45 C 333.10 428.68 333.94 429.14 334.37 429.38 C 334.68 429.53 335.29 429.85 335.60 430.01 C 336.66 428.25 337.71 426.49 338.85 424.78 L 339.12 424.65 C 343.08 423.44 343.95 418.61 347.40 416.70 C 349.05 416.09 350.85 416.78 352.54 416.89 C 348.45 423.49 344.44 430.13 340.40 436.76 L 340.13 436.73 C 339.49 436.67 338.23 436.54 337.60 436.48 C 335.29 441.05 333.51 446.20 329.21 449.35 C 328.61 449.01 327.39 448.31 326.79 447.97 C 327.79 447.29 328.84 446.67 329.79 445.91 C 329.98 442.91 329.40 439.89 329.76 436.89 C 329.38 438.88 328.99 440.89 328.25 442.79 C 329.09 439.08 327.36 435.48 326.99 431.81 C 328.31 426.67 326.52 421.51 326.13 416.38 Z" />
<path fill="#06325f" d=" M 411.15 428.14 C 411.73 427.14 412.31 426.15 412.90 425.16 C 411.89 429.74 410.73 434.29 410.21 438.97 C 411.94 438.56 413.67 438.16 415.39 437.72 C 415.57 438.23 415.93 439.25 416.11 439.77 C 413.76 439.68 411.41 439.70 409.06 439.72 C 409.23 436.04 410.09 432.46 410.73 428.85 L 411.15 428.14 Z" />
<path fill="#255778" d=" M 385.27 426.48 C 385.93 426.25 387.26 425.79 387.92 425.55 C 391.26 425.47 394.59 425.75 397.92 426.01 C 397.28 426.84 396.64 427.67 396.01 428.50 C 393.89 428.58 391.80 428.93 389.75 429.44 C 388.25 428.45 386.76 427.46 385.27 426.48 Z" />
<path fill="#f7fbfa" d=" M 301.54 431.62 C 303.84 428.16 308.34 428.61 311.96 428.40 C 311.68 430.40 311.89 432.74 310.18 434.19 C 308.36 436.36 305.28 435.51 302.81 435.51 C 302.53 434.94 301.96 433.81 301.68 433.24 L 301.54 431.62 Z" />
<path fill="#f5fdfb" d=" M 389.75 429.44 C 391.80 428.93 393.89 428.58 396.01 428.50 C 396.72 428.49 398.13 428.46 398.84 428.45 C 398.27 430.52 398.19 433.02 396.46 434.54 C 394.16 436.25 391.12 435.40 388.49 435.40 C 388.48 433.33 388.18 431.06 389.75 429.44 Z" />
<path fill="#061f38" d=" M 329.21 449.35 C 333.51 446.20 335.29 441.05 337.60 436.48 C 338.23 436.54 339.49 436.67 340.13 436.73 C 337.08 441.70 334.45 447.01 330.55 451.39 C 328.09 451.26 325.62 451.23 323.16 451.19 C 324.00 447.93 326.19 445.34 328.25 442.79 C 328.99 440.89 329.38 438.88 329.76 436.89 C 329.40 439.89 329.98 442.91 329.79 445.91 C 328.84 446.67 327.79 447.29 326.79 447.97 C 327.39 448.31 328.61 449.01 329.21 449.35 Z" />
<path fill="#234d64" d=" M 349.26 444.46 C 352.76 444.52 356.26 444.48 359.76 444.55 C 358.71 448.18 354.28 446.36 351.52 446.72 C 351.41 447.38 351.20 448.69 351.10 449.35 C 353.23 449.31 355.37 449.28 357.51 449.25 C 357.49 449.81 357.44 450.94 357.41 451.51 C 355.12 451.53 352.84 451.54 350.55 451.51 C 350.35 452.57 350.15 453.63 349.95 454.69 C 352.27 454.71 354.59 454.72 356.91 454.75 C 356.77 455.33 356.50 456.49 356.37 457.07 C 353.02 457.37 349.64 457.28 346.33 456.76 C 347.64 452.75 348.26 448.56 349.26 444.46 Z" />
<path fill="#315f7a" d=" M 359.78 447.39 C 361.62 447.34 362.99 448.20 363.78 449.87 C 364.97 448.46 366.36 447.31 368.36 447.53 C 367.32 449.06 366.14 450.50 365.21 452.10 C 365.44 453.97 366.41 455.65 367.02 457.43 C 365.29 457.34 364.02 456.23 362.83 455.12 C 361.16 455.97 359.84 457.55 357.76 457.24 C 359.02 455.47 360.43 453.82 361.66 452.04 C 361.26 450.40 360.43 448.92 359.78 447.39 Z" />
<path fill="#294f6e" d=" M 369.87 447.76 C 371.98 447.76 374.10 447.75 376.22 447.73 C 376.81 448.02 377.97 448.59 378.56 448.88 C 378.67 451.41 378.31 453.93 377.42 456.30 C 375.15 457.12 372.77 457.23 370.46 456.52 C 370.35 457.67 370.25 458.83 370.15 460.00 L 367.25 460.00 C 368.42 455.99 369.24 451.88 369.87 447.76 Z" />
<path fill="#294f6e" d=" M 379.44 457.46 C 380.27 454.25 380.82 450.97 381.66 447.77 C 383.72 448.36 385.84 448.10 387.88 447.51 C 388.18 450.14 385.37 450.01 383.73 450.65 C 382.51 453.17 383.67 458.19 379.44 457.46 Z" />
<path fill="#364950" d=" M 389.54 448.66 C 391.43 446.61 394.24 448.07 396.40 448.79 C 396.53 450.30 396.66 451.81 396.77 453.32 C 394.12 453.19 391.46 453.16 388.81 453.46 C 390.13 456.71 392.98 454.95 395.22 453.99 C 397.18 455.16 394.32 456.58 393.27 456.91 C 391.07 457.92 389.04 456.35 387.24 455.32 C 387.26 452.89 387.22 450.10 389.54 448.66 Z" />
<path fill="#364652" d=" M 398.54 448.81 C 400.40 448.23 402.28 447.38 404.29 447.66 C 405.39 448.48 406.41 449.41 407.35 450.46 C 404.88 451.38 403.17 448.93 400.76 449.14 C 401.47 451.30 403.85 451.59 405.57 452.62 C 405.72 453.99 406.17 456.09 404.32 456.46 C 401.73 458.14 398.57 456.79 396.73 454.65 C 399.09 453.53 401.05 455.68 403.40 455.73 L 403.40 453.70 C 401.80 453.20 400.22 452.66 398.63 452.14 C 398.61 451.31 398.56 449.64 398.54 448.81 Z" />
<path fill="#0e2945" d=" M 408.25 448.70 C 410.62 447.74 413.07 447.47 415.43 448.62 C 415.55 449.21 415.77 450.38 415.88 450.96 C 414.75 450.66 413.59 450.33 412.96 449.27 C 412.30 449.27 410.99 449.28 410.34 449.28 C 410.41 449.77 410.53 450.74 410.60 451.23 C 411.73 451.40 412.86 451.58 414.00 451.77 C 414.43 452.34 415.28 453.46 415.70 454.02 C 415.32 454.58 414.55 455.70 414.16 456.26 C 413.08 456.59 412.01 456.92 410.94 457.26 C 409.82 456.88 408.70 456.50 407.59 456.15 C 407.47 455.58 407.23 454.46 407.11 453.89 C 408.85 454.70 410.57 455.62 412.51 455.86 C 412.61 455.31 412.80 454.21 412.89 453.66 C 411.36 453.08 409.63 452.81 408.32 451.79 C 408.26 450.76 408.24 449.73 408.25 448.70 Z" />
<path fill="#f5fdfb" d=" M 390.67 449.48 C 391.87 449.46 393.07 449.43 394.28 449.43 C 394.32 449.99 394.40 451.11 394.44 451.67 C 392.93 451.64 391.43 451.62 389.93 451.60 C 390.12 451.07 390.48 450.01 390.67 449.48 Z" />
<path fill="#ecf8fc" d=" M 371.35 455.44 C 371.26 452.76 371.55 448.42 375.37 449.18 C 377.88 451.81 375.10 457.02 371.35 455.44 Z" />
</svg>
